<?xml version="1.0" encoding="UTF-8" standalone="no"?>
<!-- Created with Inkscape (http://www.inkscape.org/) -->

<svg
   xmlns:dc="http://purl.org/dc/elements/1.1/"
   xmlns:cc="http://creativecommons.org/ns#"
   xmlns:rdf="http://www.w3.org/1999/02/22-rdf-syntax-ns#"
   xmlns:svg="http://www.w3.org/2000/svg"
   xmlns="http://www.w3.org/2000/svg"
   xmlns:sodipodi="http://sodipodi.sourceforge.net/DTD/sodipodi-0.dtd"
   xmlns:inkscape="http://www.inkscape.org/namespaces/inkscape"
   width="707"
   height="261"
   viewBox="0 0 707.00001 261"
   id="svg2"
   version="1.1"
   inkscape:version="0.91 r13725"
   sodipodi:docname="Wastebasket.svg">
  <defs
     id="defs4" />
  <sodipodi:namedview
     id="base"
     pagecolor="#ffffff"
     bordercolor="#666666"
     borderopacity="1.0"
     inkscape:pageopacity="0.0"
     inkscape:pageshadow="2"
     inkscape:zoom="0.35"
     inkscape:cx="-202.57846"
     inkscape:cy="298.04656"
     inkscape:document-units="px"
     inkscape:current-layer="layer1"
     showgrid="false"
     showguides="true"
     inkscape:guide-bbox="true"
     units="px"
     fit-margin-top="0"
     fit-margin-left="0"
     fit-margin-right="0"
     fit-margin-bottom="0"
     inkscape:window-width="1366"
     inkscape:window-height="699"
     inkscape:window-x="0"
     inkscape:window-y="24"
     inkscape:window-maximized="1"
     showborder="false" />
  <metadata
     id="metadata7">
    <rdf:RDF>
      <cc:Work
         rdf:about="">
        <dc:format>image/svg+xml</dc:format>
        <dc:type
           rdf:resource="http://purl.org/dc/dcmitype/StillImage" />
        <dc:title></dc:title>
      </cc:Work>
    </rdf:RDF>
  </metadata>
  <g
     inkscape:label="Layer 1"
     inkscape:groupmode="layer"
     id="layer1"
     transform="translate(135.44804,-500.73807)">
    <g
       id="g4145">
      <rect
         ry="1.29369"
         y="501.23807"
         x="-134.94804"
         height="260"
         width="190"
         id="rect4143"
         style="opacity:1;fill:#ffffff;fill-opacity:0;fill-rule:nonzero;stroke:#ffffff;stroke-width:1;stroke-linecap:round;stroke-linejoin:round;stroke-miterlimit:4;stroke-dasharray:none;stroke-opacity:0" />
      <g
         transform="translate(-175.21185,361.91831)"
         id="g4331">
        <g
           id="g4301"
           transform="matrix(2.672304,0,0,2.672304,-173.53882,-323.96887)">
          <path
             inkscape:connector-curvature="0"
             id="rect4217"
             d="m 87.734516,208.12695 0,53.90039 c 0,2.45759 1.977961,4.43555 4.435547,4.43555 l 47.445317,0 c 2.45758,0 4.43554,-1.97796 4.43554,-4.43555 l 0,-53.90039 -56.316404,0 z m 9.841797,1.84961 2.035156,0 c 2.945231,0 5.316411,2.37118 5.316411,5.31641 l 0,42.91406 c 0,2.94523 -2.37118,5.31445 -5.316411,5.31445 l -2.035156,0 c -2.945229,0 -5.316406,-2.36922 -5.316406,-5.31445 l 0,-42.91406 c 0,-2.94523 2.371177,-5.31641 5.316406,-5.31641 z m 17.044927,0 2.03711,0 c 2.94521,0 5.3164,2.37118 5.3164,5.31641 l 0,42.91406 c 0,2.94523 -2.3712,5.31445 -5.3164,5.31445 l -2.03711,0 c -2.94523,0 -5.31641,-2.36922 -5.31641,-5.31445 l 0,-42.91406 c 0,-2.94523 2.37118,-5.31641 5.31641,-5.31641 z m 17.04687,0 2.03711,0 c 2.94523,0 5.31641,2.37118 5.31641,5.31641 l 0,42.91406 c 0,2.94523 -2.37118,5.31445 -5.31641,5.31445 l -2.03711,0 c -2.94523,0 -5.31641,-2.36922 -5.31641,-5.31445 l 0,-42.91406 c 0,-2.94523 2.37118,-5.31641 5.31641,-5.31641 z"
             style="opacity:1;fill:#000000;fill-opacity:1;fill-rule:nonzero;stroke:none;stroke-width:2;stroke-linecap:round;stroke-linejoin:round;stroke-miterlimit:4;stroke-dasharray:none;stroke-opacity:1" />
          <path
             inkscape:connector-curvature="0"
             id="rect4296"
             d="m 106.31371,198.22902 c -0.71802,0 -1.29534,0.4098 -1.29534,0.91946 l 0,1.407 c 0,0.19112 0.1012,0.35879 0.24067,0.50557 l -22.619421,0 c -1.150396,0 -2.076056,0.65706 -2.076056,1.47366 l 0,2.25424 c 0,0.8166 0.92566,1.47505 2.076056,1.47505 l 66.506201,0 c 1.15039,0 2.07605,-0.65845 2.07605,-1.47505 l 0,-2.25424 c 0,-0.8166 -0.92566,-1.47366 -2.07605,-1.47366 l -22.61942,0 c 0.13946,-0.14678 0.24067,-0.31445 0.24067,-0.50557 l 0,-1.407 c 0,-0.50966 -0.57732,-0.91946 -1.29534,-0.91946 l -19.15802,0 z"
             style="opacity:1;fill:#000000;fill-opacity:1;fill-rule:nonzero;stroke:#000000;stroke-width:0.6983071;stroke-linecap:round;stroke-linejoin:round;stroke-miterlimit:4;stroke-dasharray:none;stroke-opacity:1" />
        </g>
<!--        <g-->
<!--           id="g4313"-->
<!--           transform="matrix(2.672304,0,0,2.672304,-160.85363,-267.94279)">-->
<!--          <path-->
<!--             style="opacity:1;fill:#000000;fill-opacity:1;fill-rule:nonzero;stroke:none;stroke-width:2;stroke-linecap:round;stroke-linejoin:round;stroke-miterlimit:4;stroke-dasharray:none;stroke-opacity:1"-->
<!--             d="m 182.68886,185.90359 0,53.90039 c 0,2.45759 1.97796,4.43555 4.43554,4.43555 l 47.44532,0 c 2.45758,0 4.43554,-1.97796 4.43554,-4.43555 l 0,-53.90039 -56.3164,0 z m 9.84179,1.84961 2.03516,0 c 2.94523,0 5.31641,2.37118 5.31641,5.31641 l 0,42.91406 c 0,2.94523 -2.37118,5.31445 -5.31641,5.31445 l -2.03516,0 c -2.94523,0 -5.3164,-2.36922 -5.3164,-5.31445 l 0,-42.91406 c 0,-2.94523 2.37117,-5.31641 5.3164,-5.31641 z m 17.04493,0 2.03711,0 c 2.94521,0 5.3164,2.37118 5.3164,5.31641 l 0,42.91406 c 0,2.94523 -2.3712,5.31445 -5.3164,5.31445 l -2.03711,0 c -2.94523,0 -5.31641,-2.36922 -5.31641,-5.31445 l 0,-42.91406 c 0,-2.94523 2.37118,-5.31641 5.31641,-5.31641 z m 17.04687,0 2.03711,0 c 2.94523,0 5.31641,2.37118 5.31641,5.31641 l 0,42.91406 c 0,2.94523 -2.37118,5.31445 -5.31641,5.31445 l -2.03711,0 c -2.94523,0 -5.31641,-2.36922 -5.31641,-5.31445 l 0,-42.91406 c 0,-2.94523 2.37118,-5.31641 5.31641,-5.31641 z"-->
<!--             id="path4307"-->
<!--             inkscape:connector-curvature="0" />-->
<!--          <path-->
<!--             style="opacity:1;fill:#000000;fill-opacity:1;fill-rule:nonzero;stroke:#000000;stroke-width:0.6983071;stroke-linecap:round;stroke-linejoin:round;stroke-miterlimit:4;stroke-dasharray:none;stroke-opacity:1"-->
<!--             d="m 182.86492,176.28266 c -0.62182,0.35901 -0.91689,1.00257 -0.66206,1.44395 l 0.7035,1.21849 c 0.0956,0.16552 0.26703,0.26013 0.46121,0.31751 l -19.58899,11.3097 c -0.99629,0.57521 -1.46939,1.60707 -1.06109,2.31427 l 1.12712,1.95223 c 0.4083,0.70719 1.53917,0.8146 2.53543,0.2394 l 57.59607,-33.2531 c 0.99627,-0.5752 1.46868,-1.60826 1.06038,-2.31546 l -1.12712,-1.95223 c -0.4083,-0.7072 -1.53846,-0.8134 -2.53474,-0.2382 l -19.58899,11.30971 c 0.0474,-0.19684 0.0512,-0.39266 -0.0444,-0.55817 l -0.7035,-1.2185 c -0.25483,-0.44138 -0.9597,-0.50763 -1.58152,-0.14861 l -16.59134,9.57901 z"-->
<!--             id="path4309"-->
<!--             inkscape:connector-curvature="0" />-->
<!--        </g>-->
<!--        <g-->
<!--           id="g4327"-->
<!--           transform="matrix(2.672304,0,0,2.672304,134.03881,-610.97178)">-->
<!--          <path-->
<!--             style="opacity:1;fill:#000000;fill-opacity:1;fill-rule:nonzero;stroke:none;stroke-width:2;stroke-linecap:round;stroke-linejoin:round;stroke-miterlimit:4;stroke-dasharray:none;stroke-opacity:1"-->
<!--             d="m 144.05285,313.46487 0,53.90039 c 0,2.45759 1.97796,4.43555 4.43555,4.43555 l 47.44532,0 c 2.45758,0 4.43554,-1.97796 4.43554,-4.43555 l 0,-53.90039 -56.31641,0 z m 9.8418,1.84961 2.03516,0 c 2.94523,0 5.31641,2.37118 5.31641,5.31641 l 0,42.91406 c 0,2.94523 -2.37118,5.31445 -5.31641,5.31445 l -2.03516,0 c -2.94523,0 -5.31641,-2.36922 -5.31641,-5.31445 l 0,-42.91406 c 0,-2.94523 2.37118,-5.31641 5.31641,-5.31641 z m 17.04493,0 2.03711,0 c 2.94521,0 5.3164,2.37118 5.3164,5.31641 l 0,42.91406 c 0,2.94523 -2.3712,5.31445 -5.3164,5.31445 l -2.03711,0 c -2.94523,0 -5.31641,-2.36922 -5.31641,-5.31445 l 0,-42.91406 c 0,-2.94523 2.37118,-5.31641 5.31641,-5.31641 z m 17.04687,0 2.03711,0 c 2.94523,0 5.31641,2.37118 5.31641,5.31641 l 0,42.91406 c 0,2.94523 -2.37118,5.31445 -5.31641,5.31445 l -2.03711,0 c -2.94523,0 -5.31641,-2.36922 -5.31641,-5.31445 l 0,-42.91406 c 0,-2.94523 2.37118,-5.31641 5.31641,-5.31641 z"-->
<!--             id="path4319"-->
<!--             inkscape:connector-curvature="0" />-->
<!--          <path-->
<!--             style="opacity:1;fill:#000000;fill-opacity:1;fill-rule:nonzero;stroke:#000000;stroke-width:0.63111871;stroke-linecap:round;stroke-linejoin:round;stroke-miterlimit:4;stroke-dasharray:none;stroke-opacity:1"-->
<!--             d="m 212.54022,353.42274 c 0.25256,0.5385 0.83951,0.83823 1.31689,0.67254 l 1.3179,-0.45741 c 0.179,-0.0622 0.30047,-0.19253 0.3889,-0.34485 l 7.95703,16.96362 c 0.40469,0.86276 1.34578,1.34336 2.11065,1.07789 l 2.11149,-0.73284 c 0.76489,-0.26548 1.05599,-1.17375 0.65131,-2.03649 l -23.39551,-49.87688 c -0.40469,-0.86275 -1.34706,-1.3429 -2.11195,-1.07743 l -2.11148,0.73285 c -0.76489,0.26547 -1.0547,1.17329 -0.65003,2.03603 l 7.95706,16.96363 c -0.18655,-0.0569 -0.3792,-0.0783 -0.55822,-0.0161 l -1.3179,0.45741 c -0.47738,0.16568 -0.65813,0.73188 -0.40555,1.27036 l 6.73941,14.36771 z"-->
<!--             id="path4321"-->
<!--             inkscape:connector-curvature="0" />-->
<!--        </g>-->
      </g>
    </g>
  </g>
</svg>
