<svg width="48" height="48" viewBox="0 0 48 48" fill="none" xmlns="http://www.w3.org/2000/svg">
<path d="M7.17996 13.7148C7.46952 14.4646 7.94389 15.1647 8.5696 15.7921V44.572C8.5696 46.4655 10.1047 48.0006 11.9982 48.0006H35.9982C37.8917 48.0006 39.4267 46.4655 39.4267 44.572V15.7921C40.0525 15.1647 40.5271 14.4646 40.8164 13.7148H7.17969H7.17996ZM20.5696 41.1434C20.5696 42.0903 19.8022 42.8577 18.8553 42.8577C17.9084 42.8577 17.141 42.0903 17.141 41.1434V22.2863C17.141 21.3394 17.9084 20.572 18.8553 20.572C19.8022 20.572 20.5696 21.3394 20.5696 22.2863V41.1434ZM30.8553 41.1434C30.8553 42.0903 30.0879 42.8577 29.141 42.8577C28.1942 42.8577 27.4267 42.0903 27.4267 41.1434V22.2863C27.4267 21.3394 28.1942 20.572 29.141 20.572C30.0879 20.572 30.8553 21.3394 30.8553 22.2863V41.1434Z" fill="black"/>
<path d="M30.8555 5.14286H30.9358V1.71429C30.9358 0.767411 30.1684 0 29.2215 0C29.1674 0 29.1139 0.00294747 29.0608 0.0077689V0H18.8555C17.9086 0 17.1412 0.767411 17.1412 1.71429V5.14286C11.4605 5.14286 6.85547 8.21304 6.85547 12H41.1412C41.1412 8.21304 36.5362 5.14286 30.8555 5.14286ZM27.5073 5.14286H20.5698V3.42857H27.5073V5.14286Z" fill="black"/>
</svg>
